HIERARCHY
ROOT Pelvis
{
	OFFSET 0.000000 0.000000 0.000000
	CHANNELS 6 Xposition Yposition Zposition Xrotation Yrotation Zrotation
	JOINT LeftUpLeg_virtual
	{
		OFFSET 0.000000 0.000000 0.000000
		CHANNELS 3 Xrotation Yrotation Zrotation
		JOINT LeftUpLeg
		{
			OFFSET 18.735201 -5.666702 -4.541200
			CHANNELS 3 Xrotation Yrotation Zrotation
			JOINT LeftLeg
			{
				OFFSET -0.021200 -31.938179 0.493100
				CHANNELS 3 Xrotation Yrotation Zrotation
				JOINT LeftFoot
				{
					OFFSET 0.021200 -31.938179 -4.336299
					CHANNELS 3 Xrotation Yrotation Zrotation
					JOINT LeftToeBase
					{
						OFFSET 0.943001 -26.722000 15.023500
						CHANNELS 3 Xrotation Yrotation Zrotation
						End Site
						{
							OFFSET 0 0 0
						}
					}
				}
			}
		}
	}
	JOINT RightUpLeg_virtual
	{
		OFFSET 0.000000 0.000000 0.000000
		CHANNELS 3 Xrotation Yrotation Zrotation
		JOINT RightUpLeg
		{
			OFFSET -18.735201 -5.666702 -4.541200
			CHANNELS 3 Xrotation Yrotation Zrotation
			JOINT RightLeg
			{
				OFFSET 0.018946 -31.938133 0.493100
				CHANNELS 3 Xrotation Yrotation Zrotation
				JOINT RightFoot
				{
					OFFSET -0.018946 -31.938126 -4.336299
					CHANNELS 3 Xrotation Yrotation Zrotation
					JOINT RightToeBase
					{
						OFFSET -0.943001 -26.722004 15.023500
						CHANNELS 3 Xrotation Yrotation Zrotation
						End Site
						{
							OFFSET 0 0 0
						}
					}
				}
			}
		}
	}
	JOINT Hips_virtual
	{
		OFFSET 0.000000 0.000000 0.000000
		CHANNELS 3 Xrotation Yrotation Zrotation
		JOINT Hips
		{
			OFFSET -0.000000 -0.000000 -0.000000
			CHANNELS 3 Xrotation Yrotation Zrotation
			JOINT Spine
			{
				OFFSET 0.000000 10.199997 -0.299500
				CHANNELS 3 Xrotation Yrotation Zrotation
				JOINT Spine1
				{
					OFFSET 0.000000 11.900002 -1.516600
					CHANNELS 3 Xrotation Yrotation Zrotation
					JOINT Spine2
					{
						OFFSET 0.000000 13.600006 -2.842500
						CHANNELS 3 Xrotation Yrotation Zrotation
						JOINT Neck_virtual
						{
							OFFSET 0.000000 0.000000 0.000000
							CHANNELS 3 Xrotation Yrotation Zrotation
							JOINT Neck
							{
								OFFSET 0.000000 9.624100 -2.890100
								CHANNELS 3 Xrotation Yrotation Zrotation
								JOINT Head
								{
									OFFSET 0.000000 14.068802 -1.351900
									CHANNELS 3 Xrotation Yrotation Zrotation
									End Site
									{
										OFFSET 0 0 0
									}
								}
							}
						}
						JOINT LeftShoulder_virtual
						{
							OFFSET 0.000000 0.000000 0.000000
							CHANNELS 3 Xrotation Yrotation Zrotation
							JOINT LeftShoulder
							{
								OFFSET 15.263000 10.923401 -0.547700
								CHANNELS 3 Xrotation Yrotation Zrotation
								JOINT LeftArm
								{
									OFFSET 25.438599 -2.830597 -13.032500
									CHANNELS 3 Xrotation Yrotation Zrotation
									JOINT LeftForeArm
									{
										OFFSET 29.960503 0.000000 0.000000
										CHANNELS 3 Xrotation Yrotation Zrotation
										JOINT LeftHand
										{
											OFFSET 27.849251 0.000000 0.000000
											CHANNELS 3 Xrotation Yrotation Zrotation
											End Site
											{
												OFFSET 0 0 0
											}
										}
									}
								}
							}
						}
						JOINT RightShoulder_virtual
						{
							OFFSET 0.000000 0.000000 0.000000
							CHANNELS 3 Xrotation Yrotation Zrotation
							JOINT RightShoulder
							{
								OFFSET -15.263000 10.923401 -0.547700
								CHANNELS 3 Xrotation Yrotation Zrotation
								JOINT RightArm
								{
									OFFSET -25.438599 -2.830597 -13.032500
									CHANNELS 3 Xrotation Yrotation Zrotation
									JOINT RightForeArm
									{
										OFFSET -29.960503 0.000000 0.000000
										CHANNELS 3 Xrotation Yrotation Zrotation
										JOINT RightHand
										{
											OFFSET -27.849251 0.000000 0.000000
											CHANNELS 3 Xrotation Yrotation Zrotation
											End Site
											{
												OFFSET 0 0 0
											}
										}
									}
								}
							}
						}
					}
				}
			}
		}
	}
}
MOTION
Frames: 11
Frame Time: 0.03333333
-5.444383 88.756042 1.201580 0.000000 0.000000 0.000000 1.766658 -44.712836 4.562699 -28.583493 5.066376 15.874108 17.739565 -9.106349 4.026268 7.899895 -2.688267 -22.026190 0.000000 0.000000 0.000000 1.766658 -44.712836 4.562699 -11.325977 -5.137623 -20.046670 32.967742 -10.235243 -9.089899 -16.568707 -8.857559 28.476245 0.000000 0.000000 0.000000 1.766658 -44.712836 4.562699 0.000000 0.000000 0.000000 6.688062 0.676755 -0.598580 -0.557036 1.560414 -1.610233 0.000000 0.000000 0.000000 -0.534574 1.560471 -1.609752 -3.824563 0.244816 4.106149 0.000000 0.000000 0.000000 -0.534574 1.560471 -1.609752 -8.631163 -5.317958 -15.297515 0.075345 -2.626984 -31.066822 42.317506 -37.063359 15.465983 0.000000 0.000000 0.000000 -0.534574 1.560471 -1.609752 -0.620556 15.164825 -23.726496 -69.097049 11.570648 13.062491 -66.678417 31.186241 49.367508 0.000000 0.000000 0.000000 
-4.983932 88.632324 1.076845 0.000000 0.000000 0.000000 1.853286 -45.669356 4.784740 -28.769628 5.206677 16.050890 18.559151 -8.412779 3.677911 7.185783 -2.537748 -21.772838 0.000000 0.000000 0.000000 1.853286 -45.669356 4.784740 -12.763722 -4.560029 -20.360978 33.893379 -9.474716 -9.634145 -16.334626 -8.726716 28.724343 0.000000 0.000000 0.000000 1.853286 -45.669356 4.784740 0.000000 0.000000 0.000000 6.824343 0.696629 -0.529813 -0.284721 1.586126 -1.496923 0.000000 0.000000 0.000000 -0.262263 1.586192 -1.496445 -3.818199 0.691223 4.035249 0.000000 0.000000 0.000000 -0.262263 1.586192 -1.496445 -8.545905 -5.440099 -14.847633 0.040951 -2.007570 -31.692194 42.522514 -37.721188 16.179340 0.000000 0.000000 0.000000 -0.262263 1.586192 -1.496445 -1.211229 15.565834 -20.539012 -65.286356 12.486772 13.348858 -66.697719 37.549194 50.996224 0.000000 0.000000 0.000000 
-4.527173 88.496643 0.950085 0.000000 0.000000 0.000000 1.951956 -46.620689 5.019442 -29.120604 5.290996 16.233083 19.557931 -7.751536 3.342109 6.614453 -2.421787 -21.529436 0.000000 0.000000 0.000000 1.951956 -46.620689 5.019442 -14.200242 -3.946314 -20.657632 34.831967 -8.709036 -10.121349 -16.118147 -8.579894 28.929895 0.000000 0.000000 0.000000 1.951956 -46.620689 5.019442 0.000000 0.000002 0.000000 6.981986 0.712390 -0.475092 0.030504 1.602067 -1.410632 0.000000 0.000000 0.000000 0.052969 1.602121 -1.410150 -3.833405 1.122127 3.952759 0.000000 0.000000 0.000000 0.052969 1.602121 -1.410150 -8.451882 -5.621947 -14.376199 -0.075749 -1.533863 -32.297929 42.235366 -38.238575 16.524091 0.000000 0.000000 0.000000 0.052969 1.602121 -1.410150 -1.838005 15.913861 -17.234358 -61.208597 13.459269 13.486394 -68.704449 40.806525 53.529849 0.000000 0.000000 0.000000 
-4.076881 88.342163 0.829975 0.000000 0.000000 0.000000 2.063643 -47.557917 5.262765 -29.635245 5.328513 16.421373 20.763562 -7.114847 3.014413 6.114323 -2.345328 -21.260098 0.000000 0.000000 0.000000 2.063643 -47.557917 5.262765 -15.666612 -3.336823 -21.039221 35.854487 -7.875734 -10.393322 -15.965765 -8.398567 29.015456 0.000000 0.000000 0.000000 2.063643 -47.557917 5.262765 0.000000 0.000004 0.000000 7.157599 0.728328 -0.426644 0.381789 1.616023 -1.339483 0.000000 0.000000 0.000000 0.404245 1.616073 -1.339003 -3.856090 1.532890 3.853933 0.000000 0.000000 0.000000 0.404245 1.616073 -1.339003 -8.350765 -5.895221 -13.889794 -0.307272 -1.191907 -32.855536 41.504877 -38.584644 16.501872 0.000000 0.000000 0.000000 0.404245 1.616073 -1.339003 -2.473711 16.306114 -13.905136 -56.841265 14.356180 13.304793 -70.415678 44.827706 55.470640 0.000000 0.000000 0.000000 
-3.635076 88.175362 0.710461 0.000000 0.000000 0.000000 2.189028 -48.472579 5.514694 -30.164981 5.361316 16.617405 21.970212 -6.497635 2.683942 5.616561 -2.280056 -20.991552 0.000000 0.000000 0.000000 2.189028 -48.472579 5.514694 -17.171446 -2.755292 -21.548887 36.965366 -6.952590 -10.374715 -15.882442 -8.167400 28.930683 0.000000 0.000000 0.000000 2.189028 -48.472579 5.514694 0.000000 0.000001 0.000000 7.348642 0.749878 -0.386411 0.763978 1.639956 -1.283004 0.000000 0.000000 0.000000 0.786441 1.639999 -1.282523 -3.883287 1.916814 3.742101 0.000000 0.000000 0.000000 0.786441 1.639999 -1.282523 -8.246973 -6.260971 -13.419149 -0.679676 -0.986886 -33.318687 40.457382 -38.710053 16.172962 0.000000 0.000000 0.000000 0.786441 1.639999 -1.282523 -3.097944 16.714844 -10.628245 -52.210444 15.138915 12.803055 -72.258484 47.887607 57.121306 0.000000 0.000000 0.000000 
-3.203980 87.999886 0.589554 0.000000 0.000000 0.000000 2.328586 -49.356047 5.773529 -30.701352 5.393268 16.816831 23.152157 -5.931498 2.358047 5.136558 -2.202571 -20.730184 0.000000 0.000000 0.000000 2.328586 -49.356047 5.773529 -18.690797 -2.219139 -22.117005 38.097402 -5.985519 -10.191785 -15.833174 -7.887645 28.736610 0.000000 0.000000 0.000000 2.328586 -49.356047 5.773529 0.000000 0.000003 0.000000 7.545277 0.778640 -0.354987 1.157684 1.678206 -1.240630 0.000000 0.000000 0.000000 1.180151 1.678285 -1.240154 -3.910380 2.274091 3.626202 0.000000 0.000000 0.000000 1.180151 1.678285 -1.240154 -8.144140 -6.692225 -12.981982 -1.202824 -0.933797 -33.661354 39.220210 -38.576451 15.606255 0.000000 0.000000 0.000000 1.180151 1.678285 -1.240154 -3.713810 17.211266 -7.432981 -47.391814 15.763194 11.990081 -73.745798 50.054078 58.054716 0.000000 0.000000 0.000000 
-2.793463 87.839516 0.443119 0.000000 0.000000 0.000000 2.482367 -50.199169 6.044054 -31.221461 5.454746 16.946200 24.365225 -5.384064 2.045221 4.455113 -2.084544 -20.200631 0.000000 0.000000 0.000000 2.482367 -50.199169 6.044054 -20.174191 -1.742764 -22.643108 39.133723 -5.048717 -10.013290 -15.752300 -7.569479 28.551799 0.000000 0.000000 0.000000 2.482367 -50.199169 6.044054 0.000000 -0.000001 0.000000 7.738908 0.805614 -0.342594 1.545305 1.715452 -1.217393 0.000000 0.000000 0.000000 1.567760 1.715545 -1.216919 -3.939141 2.608163 3.512037 0.000000 0.000000 0.000000 1.567760 1.715545 -1.216919 -8.046777 -7.136061 -12.600208 -1.873252 -1.038001 -33.862592 37.901389 -38.184541 14.869515 0.000000 0.000000 0.000000 1.567760 1.715545 -1.216919 -4.357183 17.398589 -4.255187 -42.601809 16.559334 11.296995 -74.448789 51.725911 57.873183 0.000000 0.000000 0.000000 
-2.397527 87.666359 0.299833 0.000000 0.000000 0.000000 2.650207 -50.993984 6.314753 -31.800849 5.513610 17.052272 25.690338 -4.866182 1.753711 3.644159 -1.966211 -19.571665 0.000000 0.000000 0.000000 2.650207 -50.993984 6.314753 -21.613060 -1.287304 -23.115720 40.125999 -4.173833 -9.864432 -15.662466 -7.255809 28.409856 0.000000 0.000000 0.000000 2.650207 -50.993984 6.314753 0.000000 0.000002 0.000000 7.916904 0.820012 -0.336762 1.901390 1.728210 -1.204777 0.000000 0.000000 0.000000 1.923852 1.728312 -1.204299 -3.962909 2.921072 3.405665 0.000000 0.000000 0.000000 1.923852 1.728312 -1.204299 -7.945124 -7.576178 -12.177461 -2.693447 -1.255126 -34.037455 36.558109 -37.553630 13.998855 0.000000 0.000000 0.000000 1.923852 1.728312 -1.204299 -5.017976 17.835664 -1.052284 -37.881646 17.260337 10.377608 -74.006138 53.391401 56.213338 0.000000 0.000000 0.000000 
-2.059670 87.408081 0.177700 0.000000 0.000000 0.000000 2.869229 -51.642681 6.599539 -32.592894 5.486493 17.313746 27.120029 -4.553702 1.430668 3.027932 -1.878258 -19.297308 0.000000 0.000000 0.000000 2.869229 -51.642681 6.599539 -23.037890 -0.816049 -23.495374 41.331869 -3.454341 -9.770439 -15.751360 -7.044513 28.324677 0.000000 0.000000 0.000000 2.869229 -51.642681 6.599539 0.000000 0.000000 0.000000 8.078007 0.815954 -0.329982 2.223406 1.704152 -1.199200 0.000000 0.000000 0.000000 2.245871 1.704221 -1.198721 -3.978681 3.207410 3.315428 0.000000 0.000000 0.000000 2.245871 1.704221 -1.198721 -7.843775 -7.966330 -11.756801 -3.612929 -1.560439 -34.142336 35.196405 -36.782713 13.022779 0.000000 0.000000 0.000000 2.245871 1.704221 -1.198721 -5.656803 18.013326 2.007449 -33.568375 17.849448 9.607804 -72.924762 55.314478 53.804200 0.000000 0.000000 0.000000 
-1.744240 87.148163 0.060907 0.000000 0.000000 0.000000 3.050880 -52.220959 6.818603 -33.383909 5.417385 17.585157 28.559902 -4.294554 1.121837 2.393249 -1.791685 -19.000102 0.000000 0.000000 0.000000 3.050880 -52.220959 6.818603 -24.340178 -0.382504 -23.815321 42.457504 -2.830636 -9.653417 -15.830901 -6.832998 28.225038 0.000000 0.000000 0.000000 3.050880 -52.220959 6.818603 0.000000 0.000001 0.000000 8.223076 0.798936 -0.327576 2.513122 1.656338 -1.196034 0.000000 0.000000 0.000000 2.535574 1.656455 -1.195566 -3.981468 3.461568 3.238766 0.000000 0.000000 0.000000 2.535574 1.656455 -1.195566 -7.749002 -8.301052 -11.364166 -4.584452 -1.904490 -34.156837 33.803743 -35.979251 11.966146 0.000000 0.000000 0.000000 2.535574 1.656455 -1.195566 -6.355744 18.244730 5.208489 -29.035725 18.391809 8.982466 -69.225306 59.814938 48.009799 0.000000 0.000000 0.000000 
-1.450064 86.884689 -0.043226 0.000000 0.000000 0.000000 3.210256 -52.759759 6.999512 -34.152701 5.314866 17.874861 29.972646 -4.070596 0.822815 1.785496 -1.710949 -18.751972 0.000000 0.000000 0.000000 3.210256 -52.759759 6.999512 -25.558694 0.021647 -24.111695 43.524967 -2.254462 -9.513216 -15.907205 -6.618445 28.116074 0.000000 0.000000 0.000000 3.210256 -52.759759 6.999512 0.000000 -0.000001 0.000000 8.355931 0.782872 -0.330130 2.778446 1.612268 -1.199969 0.000000 0.000000 0.000000 2.800894 1.612377 -1.199494 -3.968928 3.681880 3.164463 0.000000 0.000000 0.000000 2.800894 1.612377 -1.199494 -7.645247 -8.632768 -10.901458 -5.617775 -2.200403 -34.209255 32.381497 -35.183732 10.853034 0.000000 0.000000 0.000000 2.800894 1.612377 -1.199494 -6.985795 18.396613 8.015037 -25.184499 18.568889 8.157963 -65.263810 61.460399 42.717584 0.000000 0.000000 0.000000 
